<?xml version="1.0" encoding="UTF-8" standalone="no"?>
<!-- Created with Inkscape (http://www.inkscape.org/) -->

<svg
   width="102mm"
   height="72mm"
   viewBox="0 0 102 72"
   version="1.1"
   id="svg1"
   xml:space="preserve"
   inkscape:version="1.4 (86a8ad7, 2024-10-11)"
   sodipodi:docname="ESCOM_logo.svg"
   xmlns:inkscape="http://www.inkscape.org/namespaces/inkscape"
   xmlns:sodipodi="http://sodipodi.sourceforge.net/DTD/sodipodi-0.dtd"
   xmlns="http://www.w3.org/2000/svg"
   xmlns:svg="http://www.w3.org/2000/svg"><sodipodi:namedview
     id="namedview1"
     pagecolor="#ffffff"
     bordercolor="#000000"
     borderopacity="0.25"
     inkscape:showpageshadow="2"
     inkscape:pageopacity="0.0"
     inkscape:pagecheckerboard="0"
     inkscape:deskcolor="#d1d1d1"
     inkscape:document-units="mm"
     inkscape:zoom="1.0167041"
     inkscape:cx="313.75895"
     inkscape:cy="86.062407"
     inkscape:window-width="1920"
     inkscape:window-height="1009"
     inkscape:window-x="-8"
     inkscape:window-y="-8"
     inkscape:window-maximized="1"
     inkscape:current-layer="layer1" /><defs
     id="defs1" /><g
     inkscape:label="Capa 1"
     inkscape:groupmode="layer"
     id="layer1"><path
       style="fill:#06689b;stroke:none;stroke-width:0.224064"
       d="m 13.715666,1 -0.079,0.079 v 1.26471 c 0.61,0.1803 1.34237,0.079 1.97612,0.079 h 3.7151 12.33098 40.31282 13.674749 2.76656 c 0.2791,0 0.8265,0.1028 1.05893,-0.081 0.2808,-0.2224 0.1343,-1.04871 0.048,-1.34157 l -3.0037,0.079 h -5.69122 -18.180289 -33.35689 -10.43391 -3.24083 l -1.89708,-0.079 m 19.20788,6.43928 c -1.20506,0.2128998 -2.31592,0.9831998 -3.39893,1.5247298 -2.19897,1.0994802 -4.39853,2.2246702 -6.56071,3.3940402 -3.80056,2.05545 -7.69557,3.96021 -11.54053,5.93238 -2.07472,1.06418 -4.2734,2.01712 -6.24454,3.26541 -2.38512,1.51047 -4.70351998,3.72352 -4.07477,6.79365 0.098,0.4788 0.3082,0.9175 0.5424,1.34376 1.23212,2.24193 3.68662,3.48313 5.90371,4.52909 3.04411,1.43612 6.07968,2.91725 9.09015,4.42248 3.50956,1.75478 7.06056,3.43011 10.592,5.13882 1.24018,0.6001 2.48307,1.20111 3.7151,1.81712 0.863,0.4315 1.75621,0.9474 2.68752,1.21135 1.50183,0.4257 3.11949,0.271 4.66364,0.271 h 7.82543 15.25564 4.82173 c 0.9604,0 1.97799,0.082 2.92466,-0.109 1.19422,-0.2408 2.39714,-1.07006 3.47797,-1.61047 l 6.48167,-3.24084 c 4.131209,-2.06561 8.277669,-4.09932 12.410019,-6.16549 1.31739,-0.6587 2.63317,-1.32076 3.95224,-1.97606 0.6834,-0.3395 1.41185,-0.6417 2.05516,-1.05429 2.556365,-1.63932 4.452395,-4.95001 2.982355,-7.89734 -1.232025,-2.47013 -3.691935,-3.74623 -6.065095,-4.88321 -3.07693,-1.47416 -6.17746,-2.89963 -9.24824,-4.38546 -3.59638,-1.74015 -7.237209,-3.38832 -10.829129,-5.13785 -1.51937,-0.7400002 -3.04098,-1.4939602 -4.5846,-2.1819002 -0.7054,-0.3144 -1.38111,-0.7125 -2.1342,-0.9117 C 66.325216,7.18594 64.770066,7.40274 63.435156,7.40274 h -7.98352 -15.09755 -4.90077 c -0.8188,0 -1.72193,-0.106 -2.52943,0.037 m 14.62328,1.4651998 c -0.4274,0.5023 -1.17137,0.8106 -1.73899,1.1401702 -1.18994,0.691 -2.38288,1.38922 -3.55701,2.10554 -4.34628,2.65159 -8.75515,5.20082 -13.12143,7.82055 -1.53452,0.9207 -3.13251,1.76408 -4.5846,2.81207 -0.6695,0.4832 -1.32825,0.9596 -1.84419,1.61444 -0.3767,0.4781 -0.6992,1.01131 -0.9173,1.58089 -0.1576,0.4118 -0.2485,0.8273 -0.2987,1.26472 -0.1203,1.04798 0.3788,2.09901 0.9717,2.92466 1.35062,1.88066 3.59359,2.77707 5.64542,3.6696 0.5826,0.2534 1.15561,0.5276 1.73898,0.7791 2.36719,1.02073 4.875,2.04417 7.43021,2.47283 3.41387,0.5727 7.13515,0.2747 10.43391,-0.7832 2.02128,-0.6483 4.03011,-1.67018 5.84931,-2.75523 0.6159,-0.3674 1.22326,-0.7428 1.81803,-1.14371 3.09405,-2.08558 7.38894,-5.54512 5.61102,-9.74861 -0.2494,-0.5896 -0.6292,-1.10227 -1.04905,-1.58089 -0.874,-0.9965 -1.90707,-1.83925 -2.98108,-2.60848 0.3564,-0.2742 0.8363,-0.2096 1.26472,-0.2505 1.04151,-0.1 2.0442,-0.078 3.08274,-0.066 3.62084,0.043 7.22804,1.66951 10.43391,3.22071 1.39862,0.6767 2.89633,1.24354 4.18938,2.1167 1.40569,0.9492 2.66467,2.60578 2.15097,4.3854 -0.1443,0.4999 -0.4457,1.00556 -0.751,1.4228 -1.0208,1.395 -2.85816,2.26273 -4.32459,3.10909 -2.44007,1.40831 -4.85595,2.87128 -7.27212,4.32112 -3.38694,2.03235 -6.78053,4.05824 -10.19677,6.04095 -1.08787,0.6314 -2.15083,1.30366 -3.24084,1.93074 -0.428,0.2462 -0.8678,0.6082 -1.34376,0.751 -0.6337,0.1901 -1.4759,0.051 -2.1342,0.051 h -4.50556 -6.40262 c -1.18635,0 -2.47602,0.1451 -3.63606,-0.1308 -0.8348,-0.1985 -1.60901,-0.6542 -2.37134,-1.03538 -0.97,-0.485 -1.95464,-0.9378 -2.92466,-1.42281 -3.11625,-1.55813 -6.25534,-3.09402 -9.40632,-4.58057 -4.20685,-1.98467 -8.40797,-4.0104 -12.56812,-6.09048 -1.85168,-0.9258 -4.00766,-2.35231 -4.45292,-4.52506 -0.2939,-1.43424 0.827,-2.80995 1.84444,-3.66845 2.37536,-2.00435 5.43042,-3.11032 8.14161,-4.5766 4.50697,-2.4375 9.12077,-4.68687 13.67475,-7.03499 1.52867,-0.7882 3.04598,-1.59715 4.58459,-2.36646 0.749,-0.3745002 1.46841,-0.8745002 2.2923,-1.0684502 0.6194,-0.1459 1.26526,-0.098 1.89707,-0.098 h 2.92466 9.64346 m 6.08644,36.5977202 v -0.079 c 1.48454,-0.7819 2.90432,-1.70511 4.34747,-2.56078 2.73968,-1.6244 5.47447,-3.25702 8.22065,-4.87028 2.90693,-1.70768 5.80386,-3.43405 8.69492,-5.16864 0.9868,-0.5921 2.01951,-1.21535 2.84556,-2.02473 0.4981,-0.4881 0.9249,-1.03717 1.24428,-1.65879 0.2331,-0.4536 0.3916,-0.9258 0.5036,-1.4228 0.2899,-1.28593 -0.2825,-2.62655 -1.0468,-3.63606 -1.56791,-2.07084 -4.31495,-3.13399 -6.62938,-4.14387 -2.5365,-1.10678 -5.09205,-2.30566 -7.82543,-2.85562 -3.33431,-0.6708 -7.10779,-0.4072 -10.35487,0.5989 -2.05402,0.6365 -4.06679,1.65372 -5.92835,2.7193 -0.7001,0.4007 -1.39824,0.831 -2.05516,1.2988 -3.02119,2.15126 -7.46191,5.56063 -5.65738,9.81272 0.244,0.5751 0.5675,1.0982 0.9634,1.58089 0.8006,0.9763 1.78436,1.85787 2.79694,2.60848 -0.4841,0.2326 -1.13067,0.2054 -1.65994,0.2442 -0.9804,0.072 -1.94376,0.1044 -2.92466,0.0063 -4.35931,-0.4359 -8.21075,-2.3613 -12.17289,-4.09014 -2.00071,-0.873 -4.65006,-2.5158 -4.0697,-5.09241 0.2456,-1.09042 1.07573,-1.94832 1.93549,-2.59823 1.35788,-1.02644 2.87404,-1.86195 4.34747,-2.7096 4.91326,-2.82656 9.76246,-5.78246 14.62328,-8.69889 1.39224,-0.8353 2.80937,-1.63357 4.18937,-2.48863 0.6934,-0.4296002 1.57113,-1.1638902 2.37134,-1.3379002 0.4002,-0.087 0.857,-0.031 1.26472,-0.031 h 2.29229 7.35116 3.63606 c 0.7906,0 1.6028,-0.062 2.37134,0.1612 0.9555,0.2769 1.87745,0.8007 2.76657,1.2420202 1.22764,0.6094 2.47551,1.19036 3.71511,1.77589 4.71488,2.22708 9.386429,4.58993 14.149009,6.71246 1.94066,0.8649 3.86678,1.791 5.77026,2.73601 1.25978,0.6254 2.55901,1.15232 3.63606,2.0873 1.11724,0.9699 2.23564,2.27569 2.12714,3.86063 -0.098,1.42417 -1.09614,2.71425 -2.12714,3.62148 -0.9019,0.7936 -2.09797,1.24118 -3.16179,1.77308 l -5.69122,2.84561 c -4.3963,2.19815 -8.804579,4.36277 -13.200469,6.56072 l -4.26842,2.13421 c -0.7243,0.3621 -1.49689,0.863 -2.2923,1.04527 -0.5222,0.1197 -1.12668,0.042 -1.65994,0.042 h -3.24083 -10.19678 m 1.10663,-26.68596 c 0.7453,-0.024 1.65486,0.8588 2.21325,1.28527 1.94867,1.48831 3.95823,3.66329 2.74101,6.27186 -0.5903,1.26506 -1.76389,2.36555 -2.82005,3.24718 -2.20542,1.84095 -4.71338,3.36044 -7.35116,4.4992 -0.8861,0.3825 -1.75343,0.7854 -2.68752,1.03954 -0.3065,0.083 -0.6267,0.2142 -0.9485,0.2137 -0.7562,-0.0011 -1.67348,-0.9482 -2.21325,-1.4114 -1.63246,-1.401 -2.97528,-2.94985 -2.67326,-5.21689 0.051,-0.3792 0.208,-0.7662 0.3786,-1.10663 0.5696,-1.13654 1.58997,-2.10789 2.53175,-2.93691 2.06832,-1.82069 4.41621,-3.18298 6.87689,-4.39498 0.8225,-0.4051 1.67014,-0.7802 2.52944,-1.10064 0.4494,-0.1676 0.9356,-0.3739 1.4228,-0.3893 m -41.10327,33.79999 0.079,1.34376 h 58.17694 13.516649 3.08275 l 1.02539,-0.1267 0.081,-1.21702 H 13.636686 m 21.50017,5.40858 c -0.9243,0.1217 -1.84271,0.2778 -2.68752,0.6992 -1.74295,0.8693 -2.94674,3.05609 -1.55089,4.80032 0.2947,0.3683 0.6716,0.6348 1.07662,0.8684 1.97765,1.14065 4.42139,0.7714 6.56072,1.33577 0.8799,0.2321 2.05163,0.7998 1.87079,1.906218 -0.1296,0.793 -0.8686,1.31169 -1.55461,1.60816 -1.50582,0.6508 -3.48838,0.4806 -4.97982,-0.1227 -0.6202,-0.2509 -1.55232,-1.28726 -2.2651,-0.839 -0.3062,0.1926 -0.3189,0.6534 -0.1376,0.9332 0.3133,0.4837 0.9565,0.762 1.45416,1.00916 1.69462,0.8418 3.78209,0.9679 5.61218,0.5717 0.953,-0.2063 2.01065,-0.6785 2.66178,-1.42476 1.18346,-1.3563 0.8762,-3.356258 -0.6066,-4.336108 -2.07555,-1.3715 -4.8631,-0.6974 -7.11403,-1.5437 -0.9351,-0.3515 -1.96718,-1.12308 -1.5723,-2.25869 0.2925,-0.8412 1.17903,-1.29192 1.96753,-1.55455 1.78223,-0.5936 4.13551,-0.5309 5.84931,0.2726 0.4504,0.2112 0.8778,0.4503 1.26471,0.7653 0.3798,0.3093 0.7928,0.7962 1.34029,0.5828 0.4086,-0.1592 0.4847,-0.6518 0.2945,-1.01355 -0.2585,-0.4916 -0.9243,-0.9004 -1.39768,-1.16213 -1.80332,-0.9969 -4.04014,-1.36726 -6.08645,-1.09779 m 14.86042,0 c -1.19992,0.158 -2.31757,0.455 -3.39893,1.01447 -2.83616,1.4675 -4.24237,4.92777 -2.89995,7.884048 0.3998,0.8804 1.05292,1.65295 1.79332,2.26662 2.78487,2.30819 7.38495,2.39814 10.35481,0.4047 0.2172,-0.1458 0.467,-0.3019 0.586,-0.5445 0.2048,-0.4176 -0.052,-0.8979 -0.5072,-0.9706 -0.4849,-0.077 -0.9514,0.3879 -1.34346,0.61 -0.7241,0.4103 -1.55236,0.6918 -2.37134,0.8356 -2.67551,0.4698 -6.16496,-0.6791 -7.2354,-3.39228 -0.2332,-0.591 -0.281,-1.190308 -0.2736,-1.818028 0.0062,-0.5189 0.1356,-1.01906 0.321,-1.50185 1.13828,-2.96372 5.07819,-4.02166 7.89935,-3.22858 0.6556,0.1843 1.32266,0.4996 1.89708,0.8643 0.3585,0.2276 0.7302,0.5505 1.18225,0.3753 0.3811,-0.1478 0.557,-0.5801 0.3397,-0.9354 -0.2639,-0.4313 -0.7777,-0.6795 -1.20573,-0.9144 -1.50663,-0.8268 -3.43499,-1.1737 -5.13791,-0.9495 m 12.7262,0 c -1.18852,0.158 -2.33485,0.4451 -3.39892,1.0185 -2.98036,1.60612 -4.39887,5.1402 -2.74217,8.196198 0.3603,0.6646 0.8374,1.22077 1.39841,1.7255 2.00729,1.80582 4.84588,2.26776 7.4302,1.88689 3.46163,-0.5102 6.7006,-3.55253 6.11883,-7.248448 -0.081,-0.5175 -0.2282,-1.02754 -0.4529,-1.50185 -1.43521,-3.02929 -5.14406,-4.50334 -8.35343,-4.07679 m 11.54053,2.49589 c 1.17366,1.17366 2.27529,2.42171 3.406,3.63606 0.3573,0.3837 0.8972,1.19734 1.49478,1.15938 0.612,-0.039 1.157559,-0.9015 1.524419,-1.31747 0.5229,-0.5928 1.09185,-1.145 1.6148,-1.73898 0.4908,-0.5575 1.00592,-1.22014 1.60346,-1.65994 v 7.983518 c 0,0.6717 -0.2654,2.67778 1.02411,2.15458 0.4095,-0.1662 0.3981,-0.5953 0.3987,-0.9689 v -2.60848 -6.797848 c 0,-0.5661 0.264,-1.98426 -0.3987,-2.2446 -0.5217,-0.2049 -0.9216,0.1679 -1.26124,0.5057 -0.7545,0.7505 -1.46996,1.56803 -2.16776,2.37128 -0.7575,0.8719 -1.672419,1.66392 -2.337789,2.60848 -1.39589,-1.39589 -2.74853,-2.8669 -4.05385,-4.34746 -0.4434,-0.5029 -1.06764,-1.46164 -1.86988,-1.13798 -0.3439,0.1388 -0.3202,0.5111 -0.3208,0.8218 v 2.29229 6.402628 1.81803 c 0,0.2932 -0.06,0.6686 0.048,0.947 0.2035,0.5281 1.02771,0.5126 1.23739,-0.002 0.1224,-0.3003 0.059,-0.7064 0.059,-1.0241 v -1.97612 -2.766558 -4.11033 m -55.88464,5.3751 c -0.4263,0 -0.954,-0.064 -1.33516,0.1691 -0.4939,0.3023 -0.3416,0.9639 0.1507,1.16293 0.3625,0.1465 0.8017,0.091 1.18445,0.091 v 2.21325 c 1.3e-4,0.334 -0.04,0.7354 0.1987,1.00557 0.3675,0.4165 1.20253,0.2591 1.69837,0.2591 h 4.50555 3.39892 c 0.4692,-3e-5 1.02655,0.037 1.11316,-0.5545 0.1094,-0.7469 -0.6554,-0.7891 -1.1922,-0.7893 h -4.50555 -3.79415 v -2.13421 h 7.50925 c 0.6157,0 2.2751,0.2676 2.2751,-0.7114 0,-0.9681 -1.66448,-0.7114 -2.2751,-0.7114 h -7.50925 v -6.40262 h 7.74639 c 0.6354,0 2.36041,0.2937 2.19398,-0.7901 -0.1317,-0.8575 -1.82226,-0.5537 -2.43112,-0.5537 h -6.4034 c -0.6097,0 -1.86156,-0.2313 -2.31975,0.2702 -0.4051,0.4435 -0.2097,1.46551 -0.2097,2.02205 v 5.45408 m 44.42316,-6.53808 c 3.16991,-0.3893 7.01398,1.36514 7.29151,4.87815 0.044,0.5588 -0.044,1.13305 -0.2327,1.65993 -0.1936,0.542 -0.4861,1.057378 -0.851,1.501858 -0.4601,0.5604 -1.07476,1.0299 -1.70228,1.38889 -0.795,0.4548 -1.70465,0.6937 -2.60847,0.8018 -2.11338,0.2528 -4.4785,-0.3157 -5.99392,-1.88158 -2.33675,-2.414538 -1.39889,-6.064708 1.48837,-7.533408 0.826,-0.4201 1.68756,-0.7025 2.60848,-0.8156 z"
       id="path1" /></g></svg>
